Coordinates
version=1
nRows=21
nColumns=12
inDegrees=yes

Units are S.I. units (second, meters, Newtons, ...)
Angles are in degrees

endheader
time	SC_y	SC_z	SC_x	AC_y	AC_z	AC_x	GH_y	GH_z	GH_yy	EL_x	PS_y
       0.0              -53.15          10.79          15.07          51.13          9.175        -0.6352          74.14          21.21          146.9          84.57          120.7
   0.02912              -53.15          10.79          15.08          51.13          9.171        -0.6327          74.15          21.22          146.9          84.57          120.7
   0.05824              -53.15          10.79          15.09          51.13          9.166          -0.63          74.17          21.22          146.9          84.57          120.7
   0.08736              -53.15           10.8           15.1          51.13          9.161        -0.6272          74.18          21.23          146.9          84.58          120.7
    0.1165              -53.15           10.8          15.11          51.13          9.156        -0.6242          74.19          21.23          146.9          84.58          120.7
    0.1456              -53.15           10.8          15.12          51.13          9.151        -0.6209           74.2          21.24          146.9          84.58          120.7
    0.1747              -53.15           10.8          15.13          51.13          9.145        -0.6175          74.22          21.24          146.9          84.58          120.7
    0.2038              -53.14           10.8          15.14          51.13          9.139        -0.6138          74.23          21.25          146.9          84.59          120.7
     0.233              -53.14          10.81          15.15          51.13          9.133        -0.6098          74.25          21.26          146.9          84.59          120.7
    0.2621              -53.14          10.81          15.17          51.13          9.126        -0.6056          74.26          21.26          146.9           84.6          120.6
    0.2912              -53.14          10.81          15.18          51.13          9.118         -0.601          74.28          21.27          146.8           84.6          120.6
    0.3203              -53.14          10.82           15.2          51.13           9.11        -0.5961           74.3          21.28          146.8          84.61          120.6
    0.3494              -53.14          10.82          15.21          51.13          9.102        -0.5908          74.32          21.29          146.8          84.61          120.6
    0.3786              -53.14          10.82          15.23          51.13          9.092        -0.5851          74.35           21.3          146.8          84.62          120.6
    0.4077              -53.13          10.83          15.25          51.13          9.082         -0.579          74.37          21.31          146.8          84.62          120.6
    0.4368              -53.13          10.83          15.27          51.13          9.071        -0.5723           74.4          21.32          146.8          84.63          120.6
    0.4659              -53.13          10.84          15.29          51.13          9.059         -0.565          74.43          21.34          146.8          84.64          120.6
     0.495              -53.13          10.84          15.32          51.13          9.046         -0.557          74.46          21.35          146.8          84.64          120.6
    0.5242              -53.12          10.85          15.35          51.13          9.032        -0.5484           74.5          21.36          146.8          84.65          120.6
    0.5533              -53.12          10.85          15.37          51.13          9.016        -0.5389          74.54          21.38          146.8          84.66          120.6
    0.5824              -53.12          10.86          15.41          51.13          8.999        -0.5285          74.58           21.4          146.7          84.67          120.6
